<?xml version="1.0" standalone="no"?>
<!DOCTYPE svg PUBLIC "-//W3C//DTD SVG 20010904//EN"
 "http://www.w3.org/TR/2001/REC-SVG-20010904/DTD/svg10.dtd">
<svg version="1.0" xmlns="http://www.w3.org/2000/svg"
 width="165.000000pt" height="175.000000pt" viewBox="0 0 165.000000 175.000000"
 preserveAspectRatio="xMidYMid meet">

<g transform="translate(0.000000,175.000000) scale(0.100000,-0.100000)" stroke="none">
<path d="M470 1230 c-24 -24 -25 10 9 -369 27 -301 29 -315 51 -333 22 -17 39
-19 177 -16 120 2 156 6 168 18 11 12 21 83 40 293 31 347 32 403 6 417 -12 6
-103 10 -225 10 -193 0 -207 -1 -226 -20z m400 -89 c0 -47 -10 -61 -41 -61
-21 0 -32 -6 -38 -22 -5 -13 -12 -102 -15 -198 -4 -96 -10 -183 -12 -192 -3
-10 -14 -18 -25 -18 -18 0 -19 9 -19 195 0 167 2 195 15 195 8 0 15 9 15 20 0
18 -8 20 -107 22 l-108 3 -3 43 -3 42 170 0 171 0 0 -29z m-285 -279 c8 -219
13 -246 43 -250 17 -3 22 2 22 17 0 12 -4 21 -9 21 -5 0 -12 66 -15 148 -4 81
-9 168 -12 195 l-6 47 36 0 36 0 2 -212 3 -213 68 -3 c115 -5 75 -22 -52 -22
l-120 0 -5 43 c-7 51 -36 368 -36 391 0 9 8 16 19 16 17 0 19 -13 26 -178z
m272 141 c-3 -21 -11 -109 -18 -195 -10 -124 -16 -158 -27 -158 -12 0 -13 12
-8 63 3 34 8 122 12 195 6 123 8 132 27 132 17 0 19 -5 14 -37z"/>
<path d="M1181 1202 c-42 -107 -241 -646 -239 -647 2 -1 18 -7 36 -13 30 -10
34 -9 41 11 122 325 241 650 239 652 -2 1 -17 7 -35 13 -29 10 -32 8 -42 -16z"/>
<path d="M183 1012 c-147 -103 -152 -108 -152 -142 0 -34 3 -37 151 -130 83
-52 154 -96 158 -98 5 -2 17 10 29 27 l21 29 -130 83 c-72 45 -132 85 -134 88
-3 4 56 49 130 100 l134 94 -21 28 c-11 16 -23 29 -27 28 -4 0 -75 -49 -159
-107z"/>
<path d="M1281 1091 l-21 -29 123 -78 c67 -42 127 -82 134 -88 9 -8 -23 -35
-123 -104 l-134 -94 21 -29 c12 -17 24 -29 28 -27 4 2 75 50 159 108 149 103
152 106 149 140 -2 32 -9 39 -155 132 -84 54 -155 98 -157 98 -2 0 -13 -13
-24 -29z"/>
</g>
</svg>
